<?xml version="1.0" encoding="UTF-8"?>
<svg id="Layer_1" xmlns="http://www.w3.org/2000/svg" version="1.1" viewBox="0 0 841.9 595.3">
  <!-- Generator: Adobe Illustrator 29.1.0, SVG Export Plug-In . SVG Version: 2.1.0 Build 142)  -->
  <path d="M257.2,321.5c-2-.9-3.7-2.5-5.2-4.8v5.2h-14.3v-64.7h14.3v21.8c1.6-2.3,3.3-3.9,5.2-4.8s4.3-1.3,7.1-1.3c4.1,0,7.7,1.1,10.9,3.2,3.2,2.1,5.7,5.1,7.4,8.9s2.7,8.1,2.7,12.9-.9,9.2-2.7,13-4.2,6.8-7.4,8.9-6.8,3.2-10.9,3.2-5.1-.4-7.1-1.3ZM267.9,307.2c1.9-2.4,2.9-5.5,2.9-9.4s-1-6.9-2.9-9.3c-1.9-2.4-4.5-3.6-7.6-3.6s-5.7,1.2-7.6,3.5-2.9,5.5-2.9,9.3,1,7.1,2.9,9.4,4.5,3.5,7.6,3.5,5.7-1.2,7.6-3.6h0Z"/>
  <path d="M290.1,268.5c-1.6-1.3-2.3-3.1-2.3-5.3s.8-4,2.3-5.4,3.5-2,5.7-2,4.2.7,5.7,2c1.6,1.3,2.3,3.1,2.3,5.4s-.8,4-2.3,5.3-3.5,2-5.7,2-4.2-.6-5.7-2ZM303,321.9h-14.3v-48.1h14.3v48.1Z"/>
  <path d="M318.5,319.8c-3.8-2.1-6.8-5.1-8.9-8.9s-3.2-8.3-3.2-13.3,1.1-9.2,3.2-12.9,5.1-6.7,8.9-8.8,8.2-3.1,13.2-3.1,9.4,1.1,13.2,3.1,6.8,5,8.9,8.8c2.1,3.7,3.2,8.1,3.2,12.9s-1.1,9.5-3.1,13.3-5,6.8-8.8,8.9-8.3,3.1-13.3,3.1-9.4-1.1-13.2-3.1h0ZM339.3,307.1c1.8-2.4,2.8-5.6,2.8-9.5s-.9-6.9-2.8-9.2-4.5-3.5-7.6-3.5-5.7,1.1-7.7,3.5-2.9,5.4-2.9,9.2,1,7.2,2.9,9.6c1.9,2.4,4.5,3.5,7.7,3.5s5.8-1.2,7.6-3.6h0Z"/>
  <path d="M379.8,321.5c-2-.9-3.7-2.5-5.2-4.8v5.2h-14.3v-64.7h14.3v21.8c1.6-2.3,3.3-3.9,5.2-4.8s4.3-1.3,7.1-1.3c4.1,0,7.7,1.1,10.9,3.2,3.2,2.1,5.7,5.1,7.4,8.9s2.7,8.1,2.7,12.9-.9,9.2-2.7,13-4.2,6.8-7.4,8.9c-3.2,2.1-6.8,3.2-10.9,3.2s-5.1-.4-7.1-1.3ZM390.5,307.2c1.9-2.4,2.9-5.5,2.9-9.4s-1-6.9-2.9-9.3c-1.9-2.4-4.5-3.6-7.6-3.6s-5.7,1.2-7.6,3.5-2.9,5.5-2.9,9.3,1,7.1,2.9,9.4,4.5,3.5,7.6,3.5,5.7-1.2,7.6-3.6h0Z"/>
  <path d="M414,319.1c-3-2.5-4.5-6.1-4.5-10.7s2-9,6-11.6,3.2-1.7,5-2.3,4-1.1,6.3-1.6l12.4-2.2c-.1-2.4-.8-4.3-2-5.6s-2.7-1.7-4.8-1.7-3.3.6-4.6,1.7-2.2,2.7-2.5,4.7h-14.1c.6-3.8,1.9-7.1,4-9.6s4.7-4.5,7.7-5.7c3-1.2,6.2-1.8,9.6-1.8s5.7.4,8.3,1.2c2.5.8,4.8,2,6.6,3.5s3.3,3.5,4.1,5.6c.8,2.1,1.3,4.4,1.6,6.7.2,2.3.3,5.4.3,9.3v22.8h-14.3v-5.9c-.8,1.8-1.9,3.3-3.4,4.3-2.4,1.7-5.9,2.5-10.6,2.5s-8.3-1.3-11.3-3.7h.1ZM434.6,310.9c1.8-.8,3.1-2,3.8-3.5s1.1-3.7,1.2-6.5l-8.8,1.7c-1.6.3-2.8.6-3.7.9s-1.6.8-2.2,1.3c-.8.8-1.3,1.8-1.3,3s.6,2.5,1.6,3.2c1.1.7,2.4,1.1,4.1,1.1s3.4-.4,5.2-1.2Z"/>
  <path d="M458.4,321.9v-48.1h14.3v5.2c1.6-2.3,3.3-3.9,5.2-4.8s4.3-1.3,7.1-1.3c7.9,0,13,2.8,15.6,8.3s1.3,3.7,1.6,5.7c.2,1.9.3,4.7.3,8.3v26.9h-14.3v-27.1c0-2.4-.1-4.2-.5-5.6s-.8-2.4-1.6-3.3c-1.1-1.2-2.9-1.8-5.2-1.8s-5.1.9-6.4,2.5-1.8,4.3-1.8,8.1v27.1h-14.3Z"/>
  <path d="M521.6,321.9h-14.3v-64.7h14.3v33.5l15.3-16.9h17.5l-19.8,20.7,20.9,27.4h-17l-17-23v23h0Z"/>
  <path d="M567,321.9c-3.5,0-6.2-.8-8.1-2.5s-2.9-4-2.9-7.1v-55.2h14.3v50.2c0,2,.9,3,2.8,3h3.5v11.5h-9.6Z"/>
  <path d="M586.6,335.7c-.9.5-2,.7-3.4.7h-2.7v11.6h5.4c4.5,0,8-1.1,10.5-3.1s4.5-5.5,6.1-10.5l20.2-60.6h-15.3l-7.8,34.1-9-34.1h-15.3l17.1,49-2.5,7.5c-.7,2.1-1.3,3.3-1.7,3.9s-1,1.2-1.6,1.5Z"/>
  <g>
    <path d="M237.6,350.2v-21.4h7.5c1.5,0,2.7.3,3.7.8,1,.5,1.7,1.2,2.2,2.1.5.9.7,1.8.7,2.9s-.2,1.7-.5,2.3-.8,1.1-1.3,1.4c-.5.3-1.1.6-1.7.8v.2c.7,0,1.3.3,2,.7.7.4,1.2,1,1.7,1.8.4.8.7,1.7.7,2.9s-.2,2-.7,2.9c-.5.9-1.3,1.5-2.3,2-1,.5-2.4.8-4.1.8h-7.7ZM240.2,338.2h4.8c.8,0,1.5-.2,2.1-.5.6-.3,1.1-.7,1.5-1.3.4-.6.6-1.2.6-2s-.3-1.7-1-2.4c-.6-.7-1.7-1-3.1-1h-4.9v7.1ZM240.2,347.9h5.1c1.7,0,2.9-.3,3.6-1s1.1-1.5,1.1-2.4-.2-1.4-.6-2c-.4-.6-.9-1.1-1.6-1.5-.7-.4-1.5-.6-2.4-.6h-5.3v7.4Z"/>
    <path d="M255.7,331.5c-.5,0-.9-.2-1.2-.5-.3-.3-.5-.7-.5-1.2s.2-.8.5-1.2c.3-.3.8-.5,1.2-.5s.9.2,1.2.5c.3.3.5.7.5,1.2s-.2.9-.5,1.2c-.3.3-.8.5-1.2.5ZM254.5,350.2v-16h2.4v16h-2.4Z"/>
    <path d="M266,350.5c-1.4,0-2.7-.3-3.8-1-1.1-.7-1.9-1.7-2.5-2.9-.6-1.2-.9-2.7-.9-4.3s.3-3.1.9-4.4c.6-1.2,1.5-2.2,2.5-2.9,1.1-.7,2.4-1,3.8-1s2.7.3,3.8,1c1.1.7,1.9,1.7,2.6,2.9.6,1.2.9,2.7.9,4.4s-.3,3.1-.9,4.3c-.6,1.2-1.5,2.2-2.6,2.9-1.1.7-2.4,1-3.8,1ZM266,348.3c1.1,0,2-.3,2.7-.8.7-.6,1.2-1.3,1.6-2.2.3-.9.5-1.9.5-3s-.2-2.1-.5-3c-.3-.9-.9-1.7-1.6-2.2-.7-.6-1.6-.9-2.7-.9s-2,.3-2.7.9c-.7.6-1.2,1.3-1.6,2.2-.3.9-.5,1.9-.5,3s.2,2.1.5,3c.3.9.9,1.7,1.6,2.2.7.6,1.6.8,2.7.8Z"/>
    <path d="M282.5,350.5c-1,0-1.8-.2-2.5-.5s-1.1-.7-1.4-1.2c-.3-.4-.6-.8-.8-1.1h-.3v2.5h-2.4v-21.4h2.4v7.9h.2c.2-.3.4-.6.8-1.1.3-.4.8-.8,1.4-1.2.6-.3,1.4-.5,2.5-.5s2.5.3,3.6,1c1,.7,1.8,1.6,2.4,2.9.6,1.2.9,2.7.9,4.4s-.3,3.2-.9,4.4-1.4,2.2-2.4,2.9c-1,.7-2.2,1-3.5,1ZM282.1,348.3c1,0,1.9-.3,2.6-.8.7-.5,1.2-1.3,1.6-2.2.3-.9.5-2,.5-3.1s-.2-2.1-.5-3.1c-.3-.9-.9-1.6-1.5-2.2s-1.5-.8-2.6-.8-1.8.3-2.5.8c-.7.5-1.2,1.2-1.5,2.1-.3.9-.5,2-.5,3.2s.2,2.3.5,3.2c.4.9.9,1.6,1.6,2.2.7.5,1.5.8,2.5.8Z"/>
    <path d="M295.8,350.5c-1,0-1.9-.2-2.8-.6s-1.5-.9-2-1.7-.7-1.6-.7-2.7.2-1.7.5-2.2c.4-.6.8-1,1.5-1.3.6-.3,1.3-.6,2-.7.7-.2,1.5-.3,2.2-.4,1-.1,1.8-.2,2.4-.3.6,0,1.1-.2,1.3-.3.3-.2.4-.4.4-.8h0c0-1.1-.3-1.9-.8-2.5-.6-.6-1.4-.9-2.5-.9s-2.1.3-2.8.8c-.7.5-1.1,1.1-1.4,1.6l-2.4-.8c.4-1,1-1.7,1.7-2.3.7-.5,1.5-.9,2.3-1.1.8-.2,1.6-.3,2.4-.3s1.1,0,1.8.2c.7.1,1.3.4,2,.7.6.4,1.2.9,1.6,1.7s.6,1.8.6,3v10.5h-2.5v-2.2h-.1c-.2.3-.4.7-.8,1.1s-.9.7-1.6,1c-.6.3-1.4.4-2.4.4ZM296.2,348.3c1,0,1.8-.2,2.5-.6.7-.4,1.2-.9,1.5-1.5.3-.6.5-1.2.5-1.9v-2.3c-.1.1-.3.2-.7.3s-.8.2-1.2.3c-.5,0-.9.1-1.3.2-.4,0-.8,0-1,.1-.6,0-1.2.2-1.8.4s-1,.5-1.3.8c-.3.4-.5.9-.5,1.5s.3,1.5,1,1.9c.6.4,1.4.7,2.4.7Z"/>
    <path d="M308.2,340.5v9.6h-2.4v-16h2.4v2.5h.2c.4-.8.9-1.5,1.7-2,.8-.5,1.8-.7,3-.7s2,.2,2.8.7,1.4,1.1,1.9,2c.5.9.7,2,.7,3.4v10.2h-2.4v-10c0-1.3-.3-2.2-1-2.9-.7-.7-1.6-1.1-2.7-1.1s-1.5.2-2.1.5c-.6.3-1.1.8-1.5,1.5s-.5,1.4-.5,2.4Z"/>
    <path d="M321.1,350.2v-21.4h2.4v21.4h-2.4ZM323.4,344.3v-3c0,0,.5,0,.5,0l7-7.1h3l-7.5,7.6h-.2l-2.8,2.6ZM331.2,350.2l-6.2-7.9,1.7-1.7,7.7,9.6h-3.2Z"/>
    <path d="M336.4,331.5c-.5,0-.9-.2-1.2-.5-.3-.3-.5-.7-.5-1.2s.2-.8.5-1.2c.3-.3.8-.5,1.2-.5s.9.2,1.2.5c.3.3.5.7.5,1.2s-.2.9-.5,1.2c-.3.3-.8.5-1.2.5ZM335.1,350.2v-16h2.4v16h-2.4Z"/>
    <path d="M342.6,340.5v9.6h-2.4v-16h2.4v2.5h.2c.4-.8.9-1.5,1.7-2,.8-.5,1.8-.7,3-.7s2,.2,2.8.7,1.4,1.1,1.9,2c.5.9.7,2,.7,3.4v10.2h-2.4v-10c0-1.3-.3-2.2-1-2.9-.7-.7-1.6-1.1-2.7-1.1s-1.5.2-2.1.5c-.6.3-1.1.8-1.5,1.5s-.5,1.4-.5,2.4Z"/>
    <path d="M361.9,356.5c-1.8,0-3.2-.3-4.2-1-1-.7-1.8-1.4-2.3-2.2l1.9-1.4c.2.3.5.6.8,1,.3.4.8.7,1.4,1,.6.3,1.4.4,2.3.4s2.4-.3,3.2-.9,1.3-1.6,1.3-2.9v-3.2h-.2c-.2.3-.4.6-.8,1.1-.3.4-.8.8-1.4,1.1-.6.3-1.4.5-2.5.5s-2.4-.3-3.5-.9-1.8-1.5-2.4-2.7-.9-2.6-.9-4.2.3-3.1.9-4.3c.6-1.2,1.4-2.2,2.4-2.8,1-.7,2.2-1,3.6-1s1.9.2,2.5.5c.6.3,1.1.7,1.4,1.2.3.4.6.8.8,1.1h.3v-2.6h2.4v16.5c0,1.4-.3,2.5-.9,3.4-.6.9-1.4,1.5-2.5,1.9s-2.2.6-3.5.6ZM361.8,347.7c1.5,0,2.6-.5,3.4-1.5.8-1,1.2-2.4,1.2-4.2s-.2-2.2-.5-3.1c-.3-.9-.9-1.6-1.5-2.1-.7-.5-1.5-.8-2.5-.8s-1.9.3-2.6.8-1.2,1.2-1.6,2.1c-.3.9-.5,1.9-.5,3s.2,2.1.5,2.9c.3.9.9,1.5,1.6,2,.7.5,1.6.7,2.6.7Z"/>
    <path d="M384.9,334.2v2.1h-8.6v-2.1h8.6ZM378.9,350.2v-18.2c0-.9.2-1.7.7-2.3.4-.6,1-1.1,1.7-1.4s1.4-.5,2.2-.5,1.1,0,1.5.2c.4.1.7.2.9.3l-.7,2.1c-.1,0-.3-.1-.5-.2-.2,0-.5,0-.9,0-.8,0-1.4.2-1.8.6-.4.4-.6,1-.6,1.8v17.6h-2.4Z"/>
    <path d="M392.3,350.5c-1.4,0-2.7-.3-3.8-1-1.1-.7-1.9-1.7-2.5-2.9-.6-1.2-.9-2.7-.9-4.3s.3-3.1.9-4.4c.6-1.2,1.5-2.2,2.5-2.9,1.1-.7,2.4-1,3.8-1s2.7.3,3.8,1c1.1.7,1.9,1.7,2.6,2.9.6,1.2.9,2.7.9,4.4s-.3,3.1-.9,4.3c-.6,1.2-1.5,2.2-2.6,2.9-1.1.7-2.4,1-3.8,1ZM392.3,348.3c1.1,0,2-.3,2.7-.8.7-.6,1.2-1.3,1.6-2.2.3-.9.5-1.9.5-3s-.2-2.1-.5-3c-.3-.9-.9-1.7-1.6-2.2-.7-.6-1.6-.9-2.7-.9s-2,.3-2.7.9c-.7.6-1.2,1.3-1.6,2.2-.3.9-.5,1.9-.5,3s.2,2.1.5,3c.3.9.9,1.7,1.6,2.2.7.6,1.6.8,2.7.8Z"/>
    <path d="M401.4,350.2v-16h2.4v2.4h.2c.3-.8.8-1.4,1.6-1.9s1.6-.7,2.6-.7.4,0,.7,0c.3,0,.5,0,.6,0v2.5c0,0-.3,0-.6,0-.3,0-.6,0-.9,0-.8,0-1.5.2-2.1.5-.6.3-1.1.8-1.4,1.3-.3.6-.5,1.2-.5,1.9v10.1h-2.4Z"/>
    <path d="M419.7,328.8v21.4h-2.6v-21.4h2.6ZM423.7,350.2h-5.1v-2.3h5c1.8,0,3.2-.3,4.4-1,1.2-.7,2-1.6,2.6-2.9.6-1.3.9-2.8.9-4.5s-.3-3.2-.8-4.5-1.4-2.2-2.5-2.9-2.5-1-4.2-1h-5.4v-2.3h5.5c2.1,0,3.8.4,5.3,1.3,1.5.9,2.6,2.1,3.4,3.7s1.2,3.5,1.2,5.7-.4,4.1-1.2,5.7c-.8,1.6-1.9,2.8-3.5,3.7-1.5.9-3.4,1.3-5.5,1.3Z"/>
    <path d="M440.7,350.5c-1,0-1.9-.2-2.8-.6-.8-.4-1.5-.9-2-1.7s-.7-1.6-.7-2.7.2-1.7.5-2.2c.4-.6.8-1,1.5-1.3.6-.3,1.3-.6,2-.7.7-.2,1.5-.3,2.2-.4,1-.1,1.8-.2,2.4-.3.6,0,1.1-.2,1.3-.3.3-.2.4-.4.4-.8h0c0-1.1-.3-1.9-.8-2.5-.6-.6-1.4-.9-2.5-.9s-2.1.3-2.8.8c-.7.5-1.1,1.1-1.4,1.6l-2.4-.8c.4-1,1-1.7,1.7-2.3.7-.5,1.5-.9,2.3-1.1s1.6-.3,2.4-.3,1.1,0,1.8.2c.7.1,1.3.4,2,.7.6.4,1.2.9,1.6,1.7.4.8.6,1.8.6,3v10.5h-2.5v-2.2h-.1c-.2.3-.4.7-.8,1.1s-.9.7-1.6,1c-.6.3-1.4.4-2.4.4ZM441.1,348.3c1,0,1.8-.2,2.5-.6.7-.4,1.2-.9,1.5-1.5.3-.6.5-1.2.5-1.9v-2.3c-.1.1-.3.2-.7.3-.3.1-.8.2-1.2.3-.5,0-.9.1-1.3.2-.4,0-.8,0-1,.1-.6,0-1.2.2-1.8.4-.6.2-1,.5-1.3.8s-.5.9-.5,1.5.3,1.5,1,1.9,1.4.7,2.4.7Z"/>
    <path d="M457.6,334.2v2.1h-8.3v-2.1h8.3ZM451.7,330.3h2.4v15.2c0,.8.2,1.4.5,1.8.3.4.9.6,1.6.6s.3,0,.5,0c.2,0,.4,0,.6,0l.5,2.2c-.2,0-.5.2-.8.2-.3,0-.7,0-1,0-1.3,0-2.3-.4-3.1-1.1-.8-.8-1.2-1.8-1.2-3v-15.9Z"/>
    <path d="M464.1,350.5c-1,0-1.9-.2-2.8-.6-.8-.4-1.5-.9-2-1.7s-.7-1.6-.7-2.7.2-1.7.5-2.2c.4-.6.8-1,1.5-1.3.6-.3,1.3-.6,2-.7.7-.2,1.5-.3,2.2-.4,1-.1,1.8-.2,2.4-.3.6,0,1.1-.2,1.3-.3.3-.2.4-.4.4-.8h0c0-1.1-.3-1.9-.8-2.5-.6-.6-1.4-.9-2.5-.9s-2.1.3-2.8.8c-.7.5-1.1,1.1-1.4,1.6l-2.4-.8c.4-1,1-1.7,1.7-2.3.7-.5,1.5-.9,2.3-1.1s1.6-.3,2.4-.3,1.1,0,1.8.2c.7.1,1.3.4,2,.7.6.4,1.2.9,1.6,1.7.4.8.6,1.8.6,3v10.5h-2.5v-2.2h-.1c-.2.3-.4.7-.8,1.1s-.9.7-1.6,1c-.6.3-1.4.4-2.4.4ZM464.5,348.3c1,0,1.8-.2,2.5-.6.7-.4,1.2-.9,1.5-1.5.3-.6.5-1.2.5-1.9v-2.3c-.1.1-.3.2-.7.3-.3.1-.8.2-1.2.3-.5,0-.9.1-1.3.2-.4,0-.8,0-1,.1-.6,0-1.2.2-1.8.4-.6.2-1,.5-1.3.8s-.5.9-.5,1.5.3,1.5,1,1.9,1.4.7,2.4.7Z"/>
    <path d="M487.5,350.5c-1.5,0-2.9-.2-4-.7s-2-1.2-2.6-2.1c-.6-.9-1-1.9-1.1-3.1h2.7c0,.8.4,1.5.8,2,.5.5,1.1.9,1.8,1.2.7.3,1.5.4,2.4.4s1.9-.2,2.7-.5c.8-.3,1.4-.8,1.9-1.4.5-.6.7-1.3.7-2s-.2-1.3-.6-1.7-.9-.8-1.6-1.1c-.6-.3-1.3-.5-2.1-.7l-2.6-.7c-1.7-.5-3-1.2-4-2.1s-1.5-2.1-1.5-3.5.3-2.2,1-3.1,1.5-1.6,2.6-2.1,2.3-.7,3.7-.7,2.6.2,3.7.7c1.1.5,1.9,1.2,2.6,2s1,1.8,1,2.9h-2.5c-.1-1.1-.6-1.9-1.5-2.5s-2-.9-3.3-.9-1.8.2-2.5.5c-.7.3-1.3.7-1.6,1.3-.4.5-.6,1.1-.6,1.8s.2,1.4.7,1.8c.5.5,1,.8,1.7,1.1.6.3,1.2.5,1.8.6l2.1.6c.6.2,1.2.4,1.9.6.7.3,1.3.6,2,1,.6.4,1.2,1,1.6,1.7.4.7.6,1.5.6,2.5s-.3,2.2-.9,3.1-1.5,1.7-2.6,2.2c-1.1.5-2.5.8-4.2.8Z"/>
    <path d="M503.7,350.5c-1.5,0-2.8-.4-3.9-1.1-1.1-.7-1.9-1.7-2.5-2.9-.6-1.2-.9-2.7-.9-4.3s.3-3.1.9-4.3c.6-1.2,1.4-2.2,2.5-2.9,1.1-.7,2.3-1.1,3.8-1.1s2.1.2,3,.6c.9.4,1.6,1,2.2,1.8s.9,1.6,1.1,2.6h-2.5c-.1-.5-.3-.9-.7-1.4-.3-.4-.8-.8-1.3-1s-1.2-.4-1.9-.4-1.8.2-2.5.7c-.7.5-1.3,1.2-1.7,2.1-.4.9-.6,2-.6,3.2s.2,2.3.6,3.2c.4.9.9,1.6,1.7,2.1.7.5,1.6.8,2.5.8s1.8-.3,2.5-.8c.7-.5,1.1-1.2,1.4-2.1h2.5c-.1.9-.5,1.8-1,2.6-.5.8-1.3,1.4-2.2,1.8-.9.4-1.9.7-3.1.7Z"/>
    <path d="M513,331.5c-.5,0-.9-.2-1.2-.5-.3-.3-.5-.7-.5-1.2s.2-.8.5-1.2c.3-.3.8-.5,1.2-.5s.9.2,1.2.5c.3.3.5.7.5,1.2s-.2.9-.5,1.2c-.3.3-.8.5-1.2.5ZM511.8,350.2v-16h2.4v16h-2.4Z"/>
    <path d="M523.6,350.5c-1.5,0-2.9-.3-4-1-1.1-.7-2-1.7-2.6-2.9-.6-1.2-.9-2.7-.9-4.3s.3-3.1.9-4.3c.6-1.3,1.4-2.2,2.5-2.9,1.1-.7,2.3-1.1,3.8-1.1s1.7.1,2.5.4c.8.3,1.6.7,2.2,1.3.7.6,1.2,1.4,1.6,2.5.4,1,.6,2.3.6,3.8v1.1h-12.4v-2.1h11l-1.1.8c0-1.1-.2-2-.5-2.9-.3-.8-.8-1.5-1.5-2s-1.5-.7-2.5-.7-1.8.2-2.5.7c-.7.5-1.2,1.1-1.6,1.9-.4.8-.6,1.6-.6,2.5v1.4c0,1.2.2,2.2.6,3.1.4.8,1,1.5,1.8,1.9.8.4,1.6.7,2.6.7s1.2,0,1.7-.3,1-.5,1.4-.8c.4-.4.7-.8.9-1.4l2.4.7c-.2.8-.7,1.5-1.3,2.1-.6.6-1.3,1.1-2.2,1.4-.9.3-1.8.5-2.9.5Z"/>
    <path d="M534.4,340.5v9.6h-2.4v-16h2.4v2.5h.2c.4-.8.9-1.5,1.7-2,.8-.5,1.8-.7,3-.7s2,.2,2.8.7c.8.4,1.4,1.1,1.9,2,.5.9.7,2,.7,3.4v10.2h-2.4v-10c0-1.3-.3-2.2-1-2.9-.7-.7-1.6-1.1-2.7-1.1s-1.5.2-2.1.5c-.6.3-1.1.8-1.5,1.5-.4.6-.5,1.4-.5,2.4Z"/>
    <path d="M553.8,350.5c-1.5,0-2.8-.4-3.9-1.1-1.1-.7-1.9-1.7-2.5-2.9-.6-1.2-.9-2.7-.9-4.3s.3-3.1.9-4.3c.6-1.2,1.4-2.2,2.5-2.9,1.1-.7,2.3-1.1,3.8-1.1s2.1.2,3,.6c.9.4,1.6,1,2.2,1.8s.9,1.6,1.1,2.6h-2.5c-.1-.5-.3-.9-.7-1.4-.3-.4-.8-.8-1.3-1-.5-.3-1.2-.4-1.9-.4s-1.8.2-2.5.7c-.7.5-1.3,1.2-1.7,2.1-.4.9-.6,2-.6,3.2s.2,2.3.6,3.2c.4.9.9,1.6,1.7,2.1.7.5,1.6.8,2.5.8s1.8-.3,2.5-.8c.7-.5,1.1-1.2,1.4-2.1h2.5c-.1.9-.5,1.8-1,2.6-.5.8-1.3,1.4-2.2,1.8-.9.4-1.9.7-3.1.7Z"/>
    <path d="M568.6,350.5c-1.5,0-2.9-.3-4-1-1.1-.7-2-1.7-2.6-2.9-.6-1.2-.9-2.7-.9-4.3s.3-3.1.9-4.3c.6-1.3,1.4-2.2,2.5-2.9,1.1-.7,2.3-1.1,3.8-1.1s1.7.1,2.5.4c.8.3,1.6.7,2.2,1.3.7.6,1.2,1.4,1.6,2.5.4,1,.6,2.3.6,3.8v1.1h-12.4v-2.1h11l-1.1.8c0-1.1-.2-2-.5-2.9-.3-.8-.8-1.5-1.5-2s-1.5-.7-2.5-.7-1.8.2-2.5.7c-.7.5-1.2,1.1-1.6,1.9-.4.8-.6,1.6-.6,2.5v1.4c0,1.2.2,2.2.6,3.1.4.8,1,1.5,1.8,1.9.8.4,1.6.7,2.6.7s1.2,0,1.7-.3,1-.5,1.4-.8c.4-.4.7-.8.9-1.4l2.4.7c-.2.8-.7,1.5-1.3,2.1-.6.6-1.3,1.1-2.2,1.4-.9.3-1.8.5-2.9.5Z"/>
  </g>
  <path d="M221.4,320.6c-1.6-1.6-2.4-3.5-2.4-5.7s.8-4,2.4-5.6c1.6-1.6,3.5-2.3,5.7-2.3s3.9.8,5.5,2.3c1.6,1.6,2.3,3.4,2.3,5.6s-.8,4.1-2.3,5.7c-1.5,1.6-3.4,2.4-5.5,2.4s-4.1-.8-5.7-2.4"/>
</svg>