<?xml version="1.0" encoding="UTF-8"?>
<svg id="Layer_1" data-name="Layer 1" xmlns="http://www.w3.org/2000/svg" viewBox="0 0 403.65 100.77">
  <path d="M38.21,65.81c-1.98-.92-3.75-2.54-5.23-4.81v5.16h-14.28V1.41h14.28v21.77c1.56-2.33,3.26-3.93,5.23-4.81s4.31-1.34,7.07-1.34c4.1,0,7.7,1.06,10.89,3.18,3.18,2.12,5.65,5.09,7.42,8.91s2.69,8.13,2.69,12.94-.92,9.19-2.69,13.01-4.24,6.79-7.42,8.91-6.79,3.18-10.89,3.18c-2.69,0-5.09-.42-7.07-1.34ZM48.88,51.46c1.91-2.4,2.9-5.51,2.9-9.4s-.99-6.86-2.9-9.26c-1.91-2.4-4.45-3.6-7.63-3.6s-5.73,1.2-7.63,3.53-2.9,5.51-2.9,9.33.99,7.07,2.9,9.4,4.45,3.53,7.63,3.53,5.73-1.2,7.63-3.6v.07Z"/>
  <path d="M71.15,12.72c-1.56-1.34-2.33-3.11-2.33-5.3s.78-3.96,2.33-5.37,3.46-2.05,5.73-2.05,4.17.71,5.73,2.05c1.56,1.34,2.33,3.11,2.33,5.37s-.78,3.96-2.33,5.3-3.46,1.98-5.73,1.98-4.17-.64-5.73-1.98ZM84.01,66.16h-14.28V18.02h14.28v48.14Z"/>
  <path d="M99.49,64.04c-3.82-2.12-6.79-5.09-8.91-8.91s-3.18-8.27-3.18-13.29,1.06-9.19,3.18-12.94,5.07-6.67,8.91-8.76,8.2-3.11,13.22-3.11,9.4,1.06,13.22,3.11,6.79,5.02,8.91,8.76c2.12,3.75,3.18,8.06,3.18,12.86s-1.06,9.47-3.11,13.29-5.02,6.79-8.84,8.91-8.27,3.11-13.29,3.11-9.4-1.06-13.22-3.11l-.07.07ZM120.27,51.32c1.84-2.4,2.83-5.58,2.83-9.54s-.92-6.86-2.83-9.19-4.45-3.46-7.56-3.46-5.73,1.13-7.7,3.46-2.9,5.37-2.9,9.19c0,4.03.99,7.21,2.9,9.61,1.91,2.4,4.52,3.53,7.7,3.53s5.8-1.2,7.63-3.6h-.07Z"/>
  <path d="M160.85,65.81c-1.98-.92-3.75-2.54-5.23-4.81v5.16h-14.28V1.41h14.28v21.77c1.56-2.33,3.26-3.93,5.23-4.81s4.31-1.34,7.07-1.34c4.1,0,7.7,1.06,10.89,3.18,3.18,2.12,5.65,5.09,7.42,8.91s2.69,8.13,2.69,12.94-.92,9.19-2.69,13.01-4.24,6.79-7.42,8.91c-3.18,2.12-6.79,3.18-10.89,3.18-2.69,0-5.09-.42-7.07-1.34ZM171.52,51.46c1.91-2.4,2.9-5.51,2.9-9.4s-.99-6.86-2.9-9.26c-1.91-2.4-4.45-3.6-7.63-3.6s-5.73,1.2-7.63,3.53-2.9,5.51-2.9,9.33.99,7.07,2.9,9.4,4.45,3.53,7.63,3.53,5.73-1.2,7.63-3.6v.07Z"/>
  <path d="M194.99,63.4c-2.97-2.54-4.45-6.08-4.45-10.74,0-5.09,1.97-9,6.01-11.59,1.55-1,3.18-1.7,5.02-2.26s3.96-1.06,6.29-1.56l12.44-2.19c-.14-2.4-.83-4.33-1.98-5.58-1.05-1.14-2.69-1.7-4.81-1.7-1.7,0-3.25.57-4.59,1.7s-2.19,2.69-2.54,4.67h-14.14c.57-3.82,1.91-7.07,4.03-9.61s4.67-4.45,7.7-5.65c3.04-1.2,6.22-1.84,9.61-1.84,2.97,0,5.73.42,8.27,1.2,2.54.78,4.81,1.98,6.64,3.53s3.25,3.46,4.1,5.58c.85,2.12,1.34,4.38,1.56,6.72.21,2.33.28,5.37.28,9.26v22.83h-14.28v-5.87c-.78,1.84-1.92,3.3-3.39,4.31-2.43,1.66-5.94,2.54-10.6,2.54s-8.34-1.27-11.31-3.75h.14ZM215.63,55.2c1.85-.83,3.12-2.04,3.82-3.53s1.06-3.68,1.2-6.5l-8.76,1.7c-1.56.28-2.83.57-3.68.92s-1.63.78-2.19,1.34c-.85.85-1.27,1.84-1.27,3.04,0,1.41.57,2.47,1.63,3.18,1.06.71,2.4,1.06,4.1,1.06s3.4-.41,5.16-1.2Z"/>
  <path d="M239.38,66.16V18.02h14.28v5.16c1.56-2.33,3.26-3.93,5.23-4.81s4.31-1.34,7.07-1.34c7.92,0,13.03,2.78,15.55,8.34.83,1.84,1.34,3.75,1.56,5.65.21,1.91.28,4.67.28,8.27v26.86h-14.28v-27.07c0-2.4-.14-4.24-.49-5.58s-.85-2.4-1.56-3.25c-1.13-1.2-2.9-1.77-5.23-1.77-3.04,0-5.14.86-6.36,2.47s-1.77,4.31-1.77,8.13v27.07h-14.28Z"/>
  <path d="M302.57,66.16h-14.28V1.41h14.28v33.5l15.27-16.89h17.53l-19.79,20.71,20.85,27.43h-16.96l-16.96-23.04v23.04h.07Z"/>
  <path d="M348.02,66.16c-3.53,0-6.24-.83-8.13-2.47s-2.9-4.03-2.9-7.07V1.41h14.28v50.19c0,1.98.92,2.97,2.83,2.97h3.53v11.52h-9.61v.07Z"/>
  <path d="M367.57,80c-.92.49-2.05.71-3.39.71h-2.74v11.59h5.41c4.52,0,7.99-1.06,10.46-3.11s4.52-5.51,6.15-10.46l20.19-60.64h-15.34l-7.78,34.07-9.05-34.07h-15.27l17.12,49.03-2.49,7.47c-.69,2.1-1.3,3.3-1.69,3.9-.44.68-.97,1.17-1.59,1.51Z"/>
  <g>
    <path d="M18.63,94.44v-21.35h7.48c1.48,0,2.7.26,3.67.77.96.51,1.68,1.2,2.16,2.06.47.86.71,1.81.71,2.85,0,.92-.16,1.67-.49,2.27s-.75,1.07-1.28,1.42c-.53.35-1.09.61-1.71.78v.2c.66.04,1.32.27,1.98.69.66.42,1.21,1.02,1.66,1.79.44.77.67,1.72.67,2.85s-.24,2.03-.73,2.89c-.49.85-1.25,1.53-2.3,2.04-1.05.5-2.42.75-4.11.75h-7.71ZM21.21,82.48h4.82c.77,0,1.48-.15,2.11-.47.63-.31,1.13-.75,1.5-1.3.37-.56.55-1.21.55-1.96,0-.94-.33-1.73-.97-2.39-.65-.66-1.68-.99-3.1-.99h-4.9v7.11ZM21.21,92.14h5.13c1.69,0,2.89-.33,3.6-.99s1.07-1.46,1.07-2.39c0-.73-.18-1.39-.55-2.01-.37-.61-.89-1.1-1.57-1.48-.68-.37-1.48-.56-2.41-.56h-5.27v7.42Z"/>
    <path d="M36.73,75.75c-.48,0-.89-.16-1.23-.49-.34-.33-.52-.72-.52-1.18s.17-.85.52-1.17c.34-.32.75-.49,1.23-.49s.89.16,1.23.49c.34.33.52.72.52,1.17s-.17.85-.52,1.18c-.34.33-.75.49-1.23.49ZM35.5,94.44v-16.02h2.44v16.02h-2.44Z"/>
    <path d="M47.04,94.78c-1.44,0-2.71-.34-3.8-1.03-1.09-.69-1.94-1.65-2.54-2.9-.61-1.24-.91-2.68-.91-4.33s.3-3.13.91-4.38c.61-1.25,1.46-2.21,2.54-2.9,1.09-.69,2.36-1.03,3.8-1.03s2.72.34,3.81,1.03c1.09.69,1.94,1.66,2.55,2.9.61,1.25.92,2.71.92,4.38s-.31,3.09-.92,4.33c-.61,1.24-1.46,2.21-2.55,2.9-1.09.69-2.36,1.03-3.81,1.03ZM47.04,92.57c1.11,0,2.02-.28,2.72-.85.71-.56,1.23-1.31,1.58-2.23.34-.92.52-1.91.52-2.97s-.17-2.08-.52-3.01c-.34-.93-.87-1.67-1.58-2.24-.71-.57-1.61-.85-2.72-.85s-1.99.28-2.69.85c-.71.57-1.23,1.32-1.58,2.24-.34.93-.52,1.93-.52,3.01s.17,2.05.52,2.97c.34.92.87,1.67,1.58,2.23.71.56,1.61.85,2.69.85Z"/>
    <path d="M63.48,94.78c-1.02,0-1.84-.17-2.47-.52s-1.1-.75-1.43-1.19c-.33-.44-.59-.81-.77-1.1h-.29v2.46h-2.35v-21.35h2.44v7.88h.2c.18-.28.43-.63.76-1.07.32-.43.79-.82,1.4-1.17.61-.34,1.44-.52,2.48-.52,1.35,0,2.53.34,3.55,1.01,1.02.67,1.82,1.63,2.4,2.87.58,1.24.87,2.7.87,4.38s-.29,3.16-.86,4.41-1.37,2.21-2.39,2.89c-1.02.68-2.2,1.02-3.54,1.02ZM63.16,92.57c1.02,0,1.88-.27,2.57-.82.69-.55,1.21-1.29,1.56-2.21.35-.93.52-1.96.52-3.1s-.17-2.14-.52-3.05c-.34-.91-.86-1.63-1.54-2.16s-1.55-.8-2.59-.8-1.84.25-2.52.75c-.68.5-1.19,1.2-1.54,2.11-.35.9-.52,1.96-.52,3.16s.18,2.27.53,3.19c.35.92.87,1.64,1.55,2.16.68.52,1.52.78,2.5.78Z"/>
    <path d="M76.82,94.81c-1.01,0-1.94-.19-2.77-.58s-1.49-.95-1.98-1.68-.73-1.62-.73-2.67c0-.92.18-1.66.54-2.23.36-.57.85-1.02,1.45-1.35.61-.33,1.28-.58,2.01-.74.73-.16,1.47-.29,2.21-.39.97-.12,1.77-.22,2.37-.29.61-.07,1.05-.18,1.33-.34.28-.16.42-.44.42-.83v-.09c0-1.02-.28-1.82-.84-2.39-.56-.57-1.41-.85-2.54-.85s-2.08.26-2.75.77c-.67.51-1.14,1.06-1.4,1.64l-2.35-.83c.42-.97.98-1.73,1.68-2.28.7-.54,1.47-.93,2.29-1.15.83-.22,1.64-.33,2.44-.33.52,0,1.11.06,1.78.18.67.12,1.32.37,1.96.75.64.38,1.16.95,1.58,1.71s.62,1.78.62,3.05v10.55h-2.47v-2.18h-.11c-.16.34-.44.71-.83,1.11s-.91.74-1.55,1.02c-.65.28-1.44.42-2.37.42ZM77.19,92.6c.97,0,1.8-.19,2.47-.57.67-.38,1.17-.88,1.52-1.48.34-.61.52-1.24.52-1.9v-2.26c-.1.12-.33.24-.68.34s-.75.19-1.2.27c-.45.08-.9.14-1.33.19-.43.05-.77.09-1.03.12-.64.09-1.24.22-1.79.41s-1,.46-1.34.82c-.34.36-.51.86-.51,1.49,0,.85.32,1.49.95,1.93.64.43,1.44.65,2.43.65Z"/>
    <path d="M89.22,84.81v9.63h-2.44v-16.02h2.35v2.52h.23c.37-.82.94-1.48,1.71-1.98.76-.5,1.75-.75,2.97-.75,1.08,0,2.03.22,2.84.66s1.45,1.11,1.9,2c.45.89.68,2.02.68,3.39v10.18h-2.44v-10c0-1.25-.33-2.23-.99-2.95-.66-.71-1.56-1.07-2.69-1.07-.78,0-1.49.17-2.11.52-.62.34-1.11.84-1.47,1.49s-.54,1.44-.54,2.38Z"/>
    <path d="M102.08,94.44v-21.35h2.44v21.35h-2.44ZM104.37,88.59l-.06-3.04h.52l6.99-7.14h3.04l-7.45,7.57h-.23l-2.81,2.61ZM112.22,94.44l-6.25-7.91,1.75-1.72,7.65,9.63h-3.15Z"/>
    <path d="M117.37,75.75c-.48,0-.89-.16-1.23-.49-.34-.33-.52-.72-.52-1.18s.17-.85.52-1.17c.34-.32.75-.49,1.23-.49s.89.16,1.23.49c.34.33.52.72.52,1.17s-.17.85-.52,1.18c-.34.33-.75.49-1.23.49ZM116.14,94.44v-16.02h2.44v16.02h-2.44Z"/>
    <path d="M123.64,84.81v9.63h-2.44v-16.02h2.35v2.52h.23c.37-.82.94-1.48,1.71-1.98.76-.5,1.75-.75,2.97-.75,1.08,0,2.03.22,2.84.66s1.45,1.11,1.9,2c.45.89.68,2.02.68,3.39v10.18h-2.44v-10c0-1.25-.33-2.23-.99-2.95-.66-.71-1.56-1.07-2.69-1.07-.78,0-1.49.17-2.11.52-.62.34-1.11.84-1.47,1.49s-.54,1.44-.54,2.38Z"/>
    <path d="M142.94,100.77c-1.79,0-3.2-.33-4.24-.97-1.04-.65-1.8-1.4-2.3-2.24l1.95-1.38c.22.3.5.63.85,1.01.34.38.81.7,1.4.98.59.28,1.37.42,2.34.42,1.29,0,2.36-.31,3.2-.93s1.27-1.6,1.27-2.94v-3.24h-.23c-.17.29-.42.64-.75,1.07-.33.43-.8.8-1.42,1.13-.62.33-1.45.49-2.5.49-1.29,0-2.45-.31-3.47-.92s-1.83-1.5-2.43-2.67-.9-2.58-.9-4.24.29-3.07.87-4.29c.58-1.22,1.38-2.17,2.42-2.84,1.03-.67,2.22-1.01,3.57-1.01,1.04,0,1.87.17,2.49.52.62.34,1.09.73,1.42,1.17.33.44.58.79.77,1.07h.26v-2.55h2.35v16.48c0,1.38-.31,2.5-.92,3.36-.62.86-1.45,1.5-2.49,1.91s-2.21.61-3.49.61ZM142.86,91.97c1.48,0,2.62-.5,3.4-1.5.79-1,1.18-2.39,1.18-4.17,0-1.16-.17-2.17-.52-3.05-.34-.88-.86-1.57-1.54-2.07-.68-.5-1.53-.75-2.53-.75s-1.91.27-2.6.8-1.21,1.24-1.55,2.13c-.34.89-.52,1.87-.52,2.95s.17,2.09.52,2.95c.35.86.87,1.52,1.57,2.01.7.48,1.56.72,2.58.72Z"/>
    <path d="M165.94,78.41v2.09h-8.63v-2.09h8.63ZM159.89,94.44v-18.23c0-.92.22-1.68.65-2.29.43-.61,1-1.07,1.68-1.38s1.41-.46,2.16-.46c.61,0,1.11.05,1.5.15.39.1.67.19.85.28l-.72,2.12c-.12-.05-.29-.1-.51-.17-.21-.06-.5-.09-.87-.09-.81,0-1.4.21-1.77.62-.37.42-.55,1.02-.55,1.81v17.63h-2.44Z"/>
    <path d="M173.32,94.78c-1.44,0-2.71-.34-3.8-1.03-1.09-.69-1.94-1.65-2.54-2.9-.61-1.24-.91-2.68-.91-4.33s.3-3.13.91-4.38c.61-1.25,1.46-2.21,2.54-2.9,1.09-.69,2.36-1.03,3.8-1.03s2.72.34,3.81,1.03c1.09.69,1.94,1.66,2.55,2.9.61,1.25.92,2.71.92,4.38s-.31,3.09-.92,4.33c-.61,1.24-1.46,2.21-2.55,2.9-1.09.69-2.36,1.03-3.81,1.03ZM173.32,92.57c1.11,0,2.02-.28,2.72-.85.71-.56,1.23-1.31,1.58-2.23.34-.92.52-1.91.52-2.97s-.17-2.08-.52-3.01c-.34-.93-.87-1.67-1.58-2.24-.71-.57-1.61-.85-2.72-.85s-1.99.28-2.69.85c-.71.57-1.23,1.32-1.58,2.24-.34.93-.52,1.93-.52,3.01s.17,2.05.52,2.97c.34.92.87,1.67,1.58,2.23.71.56,1.61.85,2.69.85Z"/>
    <path d="M182.45,94.44v-16.02h2.35v2.44h.17c.3-.79.83-1.43,1.6-1.93s1.63-.74,2.59-.74c.18,0,.41,0,.67,0,.27,0,.47.01.62.02v2.49c-.09-.02-.28-.05-.57-.09-.3-.04-.61-.06-.95-.06-.77,0-1.47.16-2.08.49-.61.33-1.09.77-1.44,1.33-.35.56-.52,1.21-.52,1.93v10.12h-2.44Z"/>
    <path d="M200.71,73.08v21.35h-2.58v-21.35h2.58ZM204.72,94.44h-5.13v-2.29h4.96c1.77,0,3.23-.34,4.39-1.02,1.16-.68,2.03-1.65,2.6-2.91.57-1.26.86-2.76.86-4.5s-.28-3.2-.85-4.45-1.41-2.21-2.53-2.88-2.52-1.01-4.19-1.01h-5.36v-2.29h5.53c2.07,0,3.85.43,5.32,1.28,1.47.85,2.61,2.07,3.39,3.66s1.18,3.49,1.18,5.7-.4,4.14-1.19,5.74c-.79,1.6-1.95,2.83-3.46,3.69-1.52.86-3.36,1.29-5.53,1.29Z"/>
    <path d="M221.71,94.81c-1.01,0-1.93-.19-2.77-.58-.83-.39-1.49-.95-1.98-1.68s-.73-1.62-.73-2.67c0-.92.18-1.66.54-2.23.36-.57.85-1.02,1.45-1.35.61-.33,1.28-.58,2.01-.74.73-.16,1.47-.29,2.21-.39.97-.12,1.77-.22,2.37-.29.61-.07,1.05-.18,1.33-.34.28-.16.42-.44.42-.83v-.09c0-1.02-.28-1.82-.84-2.39-.56-.57-1.41-.85-2.54-.85s-2.08.26-2.75.77c-.67.51-1.14,1.06-1.4,1.64l-2.35-.83c.42-.97.98-1.73,1.68-2.28.7-.54,1.47-.93,2.29-1.15s1.64-.33,2.44-.33c.52,0,1.11.06,1.78.18.67.12,1.32.37,1.96.75.64.38,1.16.95,1.58,1.71.42.76.62,1.78.62,3.05v10.55h-2.46v-2.18h-.12c-.16.34-.44.71-.83,1.11s-.91.74-1.55,1.02c-.65.28-1.44.42-2.37.42ZM222.08,92.6c.97,0,1.8-.19,2.46-.57.67-.38,1.17-.88,1.52-1.48.34-.61.52-1.24.52-1.9v-2.26c-.11.12-.33.24-.68.34-.35.1-.75.19-1.2.27-.45.08-.9.14-1.33.19-.43.05-.77.09-1.03.12-.64.09-1.24.22-1.79.41-.55.19-1,.46-1.34.82s-.51.86-.51,1.49c0,.85.32,1.49.95,1.93s1.45.65,2.43.65Z"/>
    <path d="M238.61,78.41v2.09h-8.28v-2.09h8.28ZM232.73,74.6h2.44v15.25c0,.83.17,1.44.52,1.83.34.39.89.58,1.63.58.16,0,.33,0,.51-.03.18-.02.37-.05.58-.09l.52,2.21c-.23.09-.51.16-.84.21-.33.05-.66.08-1,.08-1.29,0-2.34-.38-3.15-1.15-.81-.76-1.21-1.76-1.21-2.98v-15.91Z"/>
    <path d="M245.13,94.81c-1.01,0-1.93-.19-2.77-.58-.83-.39-1.49-.95-1.98-1.68s-.73-1.62-.73-2.67c0-.92.18-1.66.54-2.23.36-.57.85-1.02,1.45-1.35.61-.33,1.28-.58,2.01-.74.73-.16,1.47-.29,2.21-.39.97-.12,1.77-.22,2.37-.29.61-.07,1.05-.18,1.33-.34.28-.16.42-.44.42-.83v-.09c0-1.02-.28-1.82-.84-2.39-.56-.57-1.41-.85-2.54-.85s-2.08.26-2.75.77c-.67.51-1.14,1.06-1.4,1.64l-2.35-.83c.42-.97.98-1.73,1.68-2.28.7-.54,1.47-.93,2.29-1.15s1.64-.33,2.44-.33c.52,0,1.11.06,1.78.18.67.12,1.32.37,1.96.75.64.38,1.16.95,1.58,1.71.42.76.62,1.78.62,3.05v10.55h-2.46v-2.18h-.12c-.16.34-.44.71-.83,1.11s-.91.74-1.55,1.02c-.65.28-1.44.42-2.37.42ZM245.51,92.6c.97,0,1.8-.19,2.46-.57.67-.38,1.17-.88,1.52-1.48.34-.61.52-1.24.52-1.9v-2.26c-.11.12-.33.24-.68.34-.35.1-.75.19-1.2.27-.45.08-.9.14-1.33.19-.43.05-.77.09-1.03.12-.64.09-1.24.22-1.79.41-.55.19-1,.46-1.34.82s-.51.86-.51,1.49c0,.85.32,1.49.95,1.93s1.45.65,2.43.65Z"/>
    <path d="M268.52,94.81c-1.53,0-2.85-.25-3.97-.74s-1.99-1.18-2.63-2.06c-.64-.88-1-1.91-1.08-3.07h2.67c.08.8.35,1.47.82,1.99.47.53,1.08.92,1.81,1.18.74.26,1.53.39,2.38.39.98,0,1.87-.16,2.66-.49.79-.32,1.41-.78,1.87-1.36.46-.58.69-1.27.69-2.05,0-.71-.2-1.28-.6-1.72s-.92-.8-1.57-1.07c-.65-.28-1.35-.52-2.1-.73l-2.61-.75c-1.67-.48-2.99-1.16-3.96-2.06s-1.46-2.06-1.46-3.5c0-1.19.32-2.24.97-3.13s1.52-1.59,2.62-2.08,2.33-.75,3.69-.75,2.6.25,3.67.74c1.07.49,1.92,1.16,2.55,2.01s.96,1.8,1,2.87h-2.52c-.12-1.05-.63-1.87-1.51-2.45s-1.98-.87-3.27-.87c-.94,0-1.76.15-2.47.46-.71.31-1.26.73-1.65,1.26-.39.54-.59,1.15-.59,1.83,0,.75.23,1.36.7,1.83.47.46,1.02.82,1.67,1.08.64.26,1.23.46,1.76.62l2.15.6c.55.15,1.17.36,1.86.62.68.26,1.34.61,1.98,1.05.63.44,1.16,1,1.57,1.68.41.68.62,1.53.62,2.53,0,1.15-.3,2.19-.9,3.12s-1.48,1.67-2.62,2.22c-1.15.55-2.54.82-4.18.82Z"/>
    <path d="M284.74,94.78c-1.49,0-2.78-.36-3.86-1.07-1.08-.71-1.92-1.69-2.51-2.93-.59-1.24-.88-2.66-.88-4.26s.3-3.07.9-4.32c.6-1.25,1.45-2.22,2.53-2.93,1.08-.71,2.35-1.06,3.79-1.06,1.13,0,2.14.21,3.05.62.9.42,1.64,1,2.22,1.76s.93,1.63,1.07,2.64h-2.46c-.12-.49-.35-.95-.67-1.38-.33-.43-.75-.78-1.28-1.04s-1.16-.39-1.88-.39c-.96,0-1.79.25-2.51.75-.72.5-1.28,1.2-1.68,2.1-.4.9-.6,1.96-.6,3.17s.2,2.31.59,3.23c.39.92.95,1.64,1.67,2.14.72.51,1.56.76,2.53.76s1.79-.25,2.48-.75c.69-.5,1.14-1.19,1.36-2.06h2.46c-.13.95-.48,1.8-1.02,2.55-.55.75-1.27,1.35-2.16,1.8-.89.44-1.93.67-3.12.67Z"/>
    <path d="M294.07,75.75c-.48,0-.89-.16-1.23-.49-.34-.33-.52-.72-.52-1.18s.17-.85.52-1.17c.34-.32.75-.49,1.23-.49s.89.16,1.23.49c.34.33.52.72.52,1.17s-.17.85-.52,1.18c-.34.33-.75.49-1.23.49ZM292.84,94.44v-16.02h2.44v16.02h-2.44Z"/>
    <path d="M304.6,94.78c-1.54,0-2.87-.34-3.99-1.03-1.12-.69-1.98-1.65-2.59-2.89-.6-1.24-.9-2.67-.9-4.31s.3-3.09.89-4.34c.59-1.25,1.43-2.23,2.5-2.94,1.07-.71,2.33-1.06,3.78-1.06.83,0,1.66.14,2.48.42.82.28,1.57.73,2.24,1.35.67.62,1.21,1.44,1.61,2.46.4,1.02.6,2.28.6,3.77v1.06h-12.35v-2.12h11.02l-1.13.8c0-1.07-.17-2.02-.5-2.85-.33-.83-.83-1.49-1.5-1.96s-1.49-.72-2.47-.72-1.83.24-2.53.72c-.7.48-1.24,1.11-1.61,1.88-.37.77-.56,1.61-.56,2.49v1.4c0,1.21.21,2.24.63,3.08.42.84,1.01,1.48,1.76,1.91.75.44,1.63.65,2.62.65.64,0,1.22-.09,1.75-.28s.98-.47,1.36-.85c.38-.38.67-.84.87-1.4l2.38.69c-.25.8-.67,1.51-1.25,2.11-.59.61-1.32,1.08-2.19,1.42-.87.34-1.84.51-2.92.51Z"/>
    <path d="M315.45,84.81v9.63h-2.44v-16.02h2.35v2.52h.23c.37-.82.94-1.48,1.71-1.98.76-.5,1.75-.75,2.97-.75,1.08,0,2.03.22,2.84.66.81.44,1.45,1.11,1.9,2,.45.89.68,2.02.68,3.39v10.18h-2.44v-10c0-1.25-.33-2.23-.99-2.95-.66-.71-1.56-1.07-2.69-1.07-.78,0-1.49.17-2.11.52-.62.34-1.11.84-1.47,1.49-.36.65-.54,1.44-.54,2.38Z"/>
    <path d="M334.79,94.78c-1.49,0-2.78-.36-3.86-1.07-1.08-.71-1.92-1.69-2.51-2.93-.59-1.24-.88-2.66-.88-4.26s.3-3.07.9-4.32c.6-1.25,1.45-2.22,2.53-2.93,1.08-.71,2.35-1.06,3.79-1.06,1.13,0,2.14.21,3.05.62.9.42,1.64,1,2.22,1.76s.93,1.63,1.07,2.64h-2.46c-.12-.49-.35-.95-.67-1.38-.33-.43-.75-.78-1.28-1.04-.53-.26-1.16-.39-1.88-.39-.96,0-1.79.25-2.51.75-.72.5-1.28,1.2-1.68,2.1-.4.9-.6,1.96-.6,3.17s.2,2.31.59,3.23c.39.92.95,1.64,1.67,2.14.72.51,1.56.76,2.53.76s1.79-.25,2.48-.75c.69-.5,1.14-1.19,1.36-2.06h2.46c-.13.95-.48,1.8-1.02,2.55-.55.75-1.27,1.35-2.16,1.8-.89.44-1.93.67-3.12.67Z"/>
    <path d="M349.6,94.78c-1.54,0-2.87-.34-3.99-1.03-1.12-.69-1.98-1.65-2.59-2.89-.6-1.24-.9-2.67-.9-4.31s.3-3.09.89-4.34c.59-1.25,1.43-2.23,2.5-2.94,1.07-.71,2.33-1.06,3.78-1.06.83,0,1.66.14,2.48.42.82.28,1.57.73,2.24,1.35.67.62,1.21,1.44,1.61,2.46.4,1.02.6,2.28.6,3.77v1.06h-12.35v-2.12h11.02l-1.13.8c0-1.07-.17-2.02-.5-2.85-.33-.83-.83-1.49-1.5-1.96s-1.49-.72-2.47-.72-1.83.24-2.53.72c-.7.48-1.24,1.11-1.61,1.88-.37.77-.56,1.61-.56,2.49v1.4c0,1.21.21,2.24.63,3.08.42.84,1.01,1.48,1.76,1.91.75.44,1.63.65,2.62.65.64,0,1.22-.09,1.75-.28s.98-.47,1.36-.85c.38-.38.67-.84.87-1.4l2.38.69c-.25.8-.67,1.51-1.25,2.11-.59.61-1.32,1.08-2.19,1.42-.87.34-1.84.51-2.92.51Z"/>
  </g>
  <path d="M2.41,64.9c-1.61-1.58-2.41-3.48-2.41-5.67s.78-4.04,2.41-5.61c1.63-1.56,3.55-2.34,5.75-2.34s3.9.78,5.46,2.34c1.56,1.56,2.34,3.41,2.34,5.61s-.76,4.13-2.27,5.67c-1.54,1.58-3.41,2.41-5.54,2.41s-4.1-.8-5.75-2.41"/>
</svg>